{
  "accessors": [
    {
      "bufferView": 2,
      "componentType": 5126,
      "count": 16,
      "max": [
        0.009999999776482582,
        1.9500000476837158,
        -0.20000025629997253
      ],
      "min": [
        -0.009999999776482582,
        0.04999999701976776,
        -5.799999713897705
      ],
      "type": "VEC3"
    },
    {
      "bufferView": 2,
      "byteOffset": 192,
      "componentType": 5126,
      "count": 16,
      "max": [
        1.0,
        0.0,
        -0.0
      ],
      "min": [
        -1.0,
        0.0,
        -0.0
      ],
      "type": "VEC3"
    },
    {
      "bufferView": 3,
      "componentType": 5126,
      "count": 16,
      "max": [
        0.0,
        2.5094803390857123e-07,
        1.0,
        1.0
      ],
      "min": [
        0.0,
        -2.5094794864344294e-07,
        -1.0,
        1.0
      ],
      "type": "VEC4"
    },
    {
      "bufferView": 1,
      "componentType": 5126,
      "count": 16,
      "max": [
        2.000342845916748,
        1.4616305828094482
      ],
      "min": [
        -0.9998838901519775,
        -0.7308434844017029
      ],
      "type": "VEC2"
    },
    {
      "bufferView": 1,
      "byteOffset": 128,
      "componentType": 5126,
      "count": 16,
      "max": [
        2.000342845916748,
        1.4616305828094482
      ],
      "min": [
        -0.9998838901519775,
        -0.7308434844017029
      ],
      "type": "VEC2"
    },
    {
      "bufferView": 1,
      "byteOffset": 256,
      "componentType": 5126,
      "count": 16,
      "max": [
        2.000342845916748,
        1.4616305828094482
      ],
      "min": [
        -0.9998838901519775,
        -0.7308434844017029
      ],
      "type": "VEC2"
    },
    {
      "bufferView": 1,
      "byteOffset": 384,
      "componentType": 5126,
      "count": 16,
      "max": [
        2.000342845916748,
        1.4616305828094482
      ],
      "min": [
        -0.9998838901519775,
        -0.7308434844017029
      ],
      "type": "VEC2"
    },
    {
      "bufferView": 0,
      "componentType": 5125,
      "count": 24,
      "type": "SCALAR"
    },
    {
      "bufferView": 2,
      "byteOffset": 384,
      "componentType": 5126,
      "count": 1740,
      "max": [
        0.23837247490882874,
        2.0,
        0.1805177479982376
      ],
      "min": [
        -0.23699581623077393,
        0.0,
        -5.849999904632568
      ],
      "type": "VEC3"
    },
    {
      "bufferView": 2,
      "byteOffset": 21264,
      "componentType": 5126,
      "count": 1740,
      "max": [
        0.9999784231185913,
        0.9982700347900391,
        0.9999876022338867
      ],
      "min": [
        -1.0,
        -0.996757984161377,
        -1.0
      ],
      "type": "VEC3"
    },
    {
      "bufferView": 3,
      "byteOffset": 256,
      "componentType": 5126,
      "count": 1740,
      "max": [
        1.0,
        0.9999998211860657,
        0.9999933242797852,
        1.0
      ],
      "min": [
        -0.9999998211860657,
        -0.9999552965164185,
        -0.9999622106552124,
        1.0
      ],
      "type": "VEC4"
    },
    {
      "bufferView": 1,
      "byteOffset": 512,
      "componentType": 5126,
      "count": 1740,
      "max": [
        0.993383526802063,
        0.9935458302497864
      ],
      "min": [
        0.0054979706183075905,
        0.005477518308907747
      ],
      "type": "VEC2"
    },
    {
      "bufferView": 1,
      "byteOffset": 14432,
      "componentType": 5126,
      "count": 1740,
      "max": [
        0.993383526802063,
        0.9935458302497864
      ],
      "min": [
        0.0054979706183075905,
        0.005477518308907747
      ],
      "type": "VEC2"
    },
    {
      "bufferView": 1,
      "byteOffset": 28352,
      "componentType": 5126,
      "count": 1740,
      "max": [
        0.993383526802063,
        0.9935458302497864
      ],
      "min": [
        0.0054979706183075905,
        0.005477518308907747
      ],
      "type": "VEC2"
    },
    {
      "bufferView": 1,
      "byteOffset": 42272,
      "componentType": 5126,
      "count": 1740,
      "max": [
        0.993383526802063,
        0.9935458302497864
      ],
      "min": [
        0.0054979706183075905,
        0.005477518308907747
      ],
      "type": "VEC2"
    },
    {
      "bufferView": 0,
      "byteOffset": 96,
      "componentType": 5125,
      "count": 7524,
      "type": "SCALAR"
    }
  ],
  "asset": {
    "extras": {
      "author": "Nicolai Kilstrup (https://sketchfab.com/nkilstrup)",
      "license": "CC-BY-4.0 (http://creativecommons.org/licenses/by/4.0/)",
      "source": "https://sketchfab.com/3d-models/pripyat-chainlink-fence-35adb2f2461c4d30bc94e803bb50de50",
      "title": "Pripyat chainlink fence"
    },
    "generator": "Sketchfab-14.87.0",
    "version": "2.0"
  },
  "bufferViews": [
    {
      "buffer": 0,
      "byteLength": 30192,
      "name": "floatBufferViews",
      "target": 34963
    },
    {
      "buffer": 0,
      "byteLength": 56192,
      "byteOffset": 30192,
      "byteStride": 8,
      "name": "floatBufferViews",
      "target": 34962
    },
    {
      "buffer": 0,
      "byteLength": 42144,
      "byteOffset": 86384,
      "byteStride": 12,
      "name": "floatBufferViews",
      "target": 34962
    },
    {
      "buffer": 0,
      "byteLength": 28096,
      "byteOffset": 128528,
      "byteStride": 16,
      "name": "floatBufferViews",
      "target": 34962
    }
  ],
  "buffers": [
    {
      "byteLength": 156624,
      "uri": "ene.bin"
    }
  ],
  "extensionsUsed": [
    "KHR_materials_specular"
  ],
  "images": [
    {
      "uri": "textures/M_Chainlink_baseColor.png"
    },
    {
      "uri": "textures/M_Chainlink_metallicRoughness.png"
    },
    {
      "uri": "textures/M_Chainlink_normal.png"
    },
    {
      "uri": "textures/M_RustyFrame_baseColor.png"
    },
    {
      "uri": "textures/M_RustyFrame_metallicRoughness.png"
    },
    {
      "uri": "textures/M_RustyFrame_normal.png"
    }
  ],
  "materials": [
    {
      "alphaMode": "MASK",
      "name": "M_Chainlink",
      "normalTexture": {
        "index": 2
      },
      "occlusionTexture": {
        "index": 1
      },
      "pbrMetallicRoughness": {
        "baseColorTexture": {
          "index": 0
        },
        "metallicRoughnessTexture": {
          "index": 1
        }
      }
    },
    {
      "doubleSided": true,
      "extensions": {
        "KHR_materials_specular": {
          "specularColorFactor": [
            1.0,
            1.0,
            1.0
          ],
          "specularFactor": 0.3
        }
      },
      "name": "M_RustyFrame",
      "normalTexture": {
        "index": 5
      },
      "occlusionTexture": {
        "index": 4
      },
      "pbrMetallicRoughness": {
        "baseColorTexture": {
          "index": 3
        },
        "metallicFactor": 0.0,
        "metallicRoughnessTexture": {
          "index": 4
        }
      }
    }
  ],
  "meshes": [
    {
      "name": "Object_0",
      "primitives": [
        {
          "attributes": {
            "NORMAL": 1,
            "POSITION": 0,
            "TANGENT": 2,
            "TEXCOORD_0": 3,
            "TEXCOORD_1": 4,
            "TEXCOORD_2": 5,
            "TEXCOORD_3": 6
          },
          "indices": 7,
          "material": 0,
          "mode": 4
        }
      ]
    },
    {
      "name": "Object_1",
      "primitives": [
        {
          "attributes": {
            "NORMAL": 9,
            "POSITION": 8,
            "TANGENT": 10,
            "TEXCOORD_0": 11,
            "TEXCOORD_1": 12,
            "TEXCOORD_2": 13,
            "TEXCOORD_3": 14
          },
          "indices": 15,
          "material": 1,
          "mode": 4
        }
      ]
    }
  ],
  "nodes": [
    {
      "children": [
        1
      ],
      "matrix": [
        1.0,
        0.0,
        0.0,
        0.0,
        0.0,
        2.220446049250313e-16,
        -1.0,
        0.0,
        0.0,
        1.0,
        2.220446049250313e-16,
        0.0,
        0.0,
        0.0,
        0.0,
        1.0
      ],
      "name": "Sketchfab_model"
    },
    {
      "children": [
        2
      ],
      "name": "root"
    },
    {
      "children": [
        3
      ],
      "matrix": [
        1.0,
        0.0,
        0.0,
        0.0,
        0.0,
        2.220446049250313e-16,
        1.0,
        0.0,
        0.0,
        -1.0,
        2.220446049250313e-16,
        0.0,
        0.0,
        0.0,
        0.0,
        1.0
      ],
      "name": "GLTF_SceneRootNode"
    },
    {
      "children": [
        4,
        5
      ],
      "name": "Fence_Chainlink_6m_0"
    },
    {
      "mesh": 0,
      "name": "Object_4"
    },
    {
      "mesh": 1,
      "name": "Object_5"
    }
  ],
  "samplers": [
    {
      "magFilter": 9729,
      "minFilter": 9987,
      "wrapS": 10497,
      "wrapT": 10497
    }
  ],
  "scene": 0,
  "scenes": [
    {
      "name": "Sketchfab_Scene",
      "nodes": [
        0
      ]
    }
  ],
  "textures": [
    {
      "sampler": 0,
      "source": 0
    },
    {
      "sampler": 0,
      "source": 1
    },
    {
      "sampler": 0,
      "source": 2
    },
    {
      "sampler": 0,
      "source": 3
    },
    {
      "sampler": 0,
      "source": 4
    },
    {
      "sampler": 0,
      "source": 5
    }
  ]
}
